<svg xmlns="http://www.w3.org/2000/svg" viewBox="0 0 512 512">
  <defs>
    <linearGradient id="g1" x1="0%" y1="0%" x2="100%" y2="100%">
      <stop offset="0%" stop-color="#22c1ff"/>
      <stop offset="100%" stop-color="#7c3aed"/>
    </linearGradient>
  </defs>

  <!-- Book -->
  <path d="M90 140 Q170 120 250 150 L250 340 Q170 310 90 330 Z"
        fill="none" stroke="url(#g1)" stroke-width="18"/>
  <path d="M250 150 Q330 120 410 140 L410 330 Q330 310 250 340 Z"
        fill="none" stroke="url(#g1)" stroke-width="18"/>

  <!-- Human head -->
  <path d="M290 180
           C350 180 390 220 390 275
           C390 315 370 340 345 355
           L350 390
           L285 365
           C245 350 220 315 220 270
           C220 220 250 180 290 180 Z"
        fill="url(#g1)" opacity="0.9"/>

  <!-- AI circuits -->
  <circle cx="255" cy="235" r="10" fill="white"/>
  <circle cx="285" cy="215" r="10" fill="white"/>
  <circle cx="300" cy="255" r="10" fill="white"/>
  <line x1="255" y1="235" x2="285" y2="215" stroke="white" stroke-width="6"/>
  <line x1="255" y1="235" x2="300" y2="255" stroke="white" stroke-width="6"/>
  <line x1="285" y1="215" x2="320" y2="215" stroke="white" stroke-width="6"/>

  <!-- Knowledge node -->
  <circle cx="385" cy="120" r="42" fill="url(#g1)"/>
  <path d="M365 120 h40 M385 100 v40" stroke="white" stroke-width="8"/>
</svg>